<svg width="24" height="24" viewBox="0 0 24 24" fill="none" xmlns="http://www.w3.org/2000/svg">
<rect width="24" height="24" rx="12" fill="#0077B5"/>
<path d="M18.6621 17.6628C17.8746 17.644 17.1059 17.644 16.3184 17.6628C16.1496 17.6628 16.1121 17.6253 16.1121 17.4565C16.1121 16.069 16.1121 14.6628 16.1121 13.2753C16.1121 12.9565 16.0934 12.6378 15.9996 12.3378C15.7184 11.3628 14.5934 11.0065 13.7871 11.6628C13.3559 12.0003 13.1871 12.469 13.1871 13.0315C13.1871 14.344 13.1871 15.6565 13.1871 16.969C13.1871 17.1378 13.1684 17.3065 13.1871 17.494C13.2059 17.644 13.1309 17.6815 12.9996 17.6628C12.1934 17.6628 11.4059 17.6628 10.5996 17.6628C10.4496 17.6628 10.4121 17.6253 10.4121 17.4753C10.4309 16.294 10.4309 15.1128 10.4309 13.9128C10.4309 12.4503 10.4309 10.9878 10.4121 9.54403C10.4121 9.37528 10.4496 9.33778 10.5996 9.33778C11.4059 9.33778 12.1934 9.33778 12.9996 9.33778C13.1496 9.33778 13.1871 9.37528 13.1871 9.52528C13.1871 9.82528 13.1871 10.1253 13.1871 10.4815C13.2434 10.4253 13.2621 10.4065 13.2809 10.3878C14.0121 9.31903 15.0434 9.01903 16.2621 9.20653C17.6684 9.43153 18.5684 10.4065 18.7934 11.9065C18.8496 12.2628 18.8684 12.619 18.8684 12.9753C18.8684 14.4753 18.8684 15.9565 18.8684 17.4565C18.8684 17.6065 18.8309 17.6628 18.6621 17.6628Z" fill="white"/>
<path d="M8.9125 13.4999C8.9125 14.8124 8.9125 16.1249 8.9125 17.4374C8.9125 17.6062 8.875 17.6624 8.70625 17.6624C7.91875 17.6437 7.13125 17.6624 6.34375 17.6624C6.19375 17.6624 6.15625 17.6249 6.15625 17.4749C6.15625 14.8312 6.15625 12.1687 6.15625 9.5249C6.15625 9.39365 6.19375 9.3374 6.34375 9.3374C7.15 9.3374 7.95625 9.3374 8.7625 9.3374C8.93125 9.3374 8.95 9.39365 8.95 9.54365C8.9125 10.8562 8.9125 12.1687 8.9125 13.4999Z" fill="white"/>
<path d="M9.04372 7.16227C8.85622 7.91227 8.08747 8.34352 7.20622 8.19352C6.26872 8.04352 5.74372 7.12477 6.08122 6.22477C6.30622 5.66227 6.84997 5.32477 7.54372 5.34352C8.59372 5.32477 9.28747 6.16852 9.04372 7.16227Z" fill="white"/>
</svg>
