<svg width="208" height="56" viewBox="0 0 208 56" fill="none" xmlns="http://www.w3.org/2000/svg">
<path d="M8.12376 35.3813C9.45907 24.7556 17.7006 20.655 21.6544 19.9329V41.1344C16.5878 43.6441 6.78846 46.0069 8.12376 35.3813Z" fill="#1B1B1B"/>
<path d="M10.7238 34.1439C11.9602 24.3449 19.5911 20.5633 23.252 19.8973V39.4496C18.5608 41.764 9.48747 43.943 10.7238 34.1439Z" fill="#F5F5F5"/>
<path d="M60.188 35.3813C58.8527 24.7556 50.6112 20.655 46.6574 19.9329V41.1345C51.7239 43.6441 61.5233 46.0069 60.188 35.3813Z" fill="#1B1B1B"/>
<path d="M57.588 34.144C56.3516 24.3449 48.7207 20.5633 45.0598 19.8973V39.4496C49.751 41.764 58.8244 43.943 57.588 34.144Z" fill="#F5F5F5"/>
<path d="M41.5343 9.01345C39.2994 10.0652 38.3025 11.9714 38.0833 12.7931C41.5343 10.3281 42.849 12.3001 43.5063 12.4644C44.1636 12.6287 45.807 12.3001 45.9713 10.8211C46.1356 9.34211 44.328 7.69879 41.5343 9.01345Z" fill="#1B1B1B"/>
<path d="M26.7544 9.01345C28.9894 10.0652 29.9863 11.9714 30.2054 12.7931C26.7544 10.3281 25.4398 12.3001 24.7825 12.4644C24.1251 12.6287 22.4818 12.3001 22.3175 10.8211C22.1531 9.34211 23.9608 7.69879 26.7544 9.01345Z" fill="#1B1B1B"/>
<path d="M47.9422 29.3907C47.9422 37.0144 41.762 43.1946 34.1383 43.1946C26.5147 43.1946 20.3344 37.0144 20.3344 29.3907C20.3344 21.767 26.5147 15.5868 34.1383 15.5868C41.762 15.5868 47.9422 21.767 47.9422 29.3907Z" fill="#FBD23F"/>
<path fill-rule="evenodd" clip-rule="evenodd" d="M34.1383 47.4672C43.3956 47.4672 50.9002 39.9626 50.9002 30.7053C50.9002 21.448 43.3956 13.9434 34.1383 13.9434C24.881 13.9434 17.3764 21.448 17.3764 30.7053C17.3764 39.9626 24.881 47.4672 34.1383 47.4672ZM34.1383 43.1946C41.762 43.1946 47.9422 37.0144 47.9422 29.3907C47.9422 21.767 41.762 15.5868 34.1383 15.5868C26.5147 15.5868 20.3344 21.767 20.3344 29.3907C20.3344 37.0144 26.5147 43.1946 34.1383 43.1946Z" fill="#1B1B1B"/>
<path d="M41.3703 26.104C41.3703 30.0973 38.133 33.3346 34.1396 33.3346C30.1463 33.3346 26.909 30.0973 26.909 26.104C26.909 22.1106 30.1463 18.8734 34.1396 18.8734C38.133 18.8734 41.3703 22.1106 41.3703 26.104Z" fill="#FBD23F"/>
<path fill-rule="evenodd" clip-rule="evenodd" d="M34.1394 38.2647C39.9479 38.2647 44.6567 33.5559 44.6567 27.7474C44.6567 21.9389 39.9479 17.2302 34.1394 17.2302C28.3309 17.2302 23.6222 21.9389 23.6222 27.7474C23.6222 33.5559 28.3309 38.2647 34.1394 38.2647ZM34.1396 33.3346C38.133 33.3346 41.3703 30.0973 41.3703 26.104C41.3703 22.1106 38.133 18.8734 34.1396 18.8734C30.1463 18.8734 26.909 22.1106 26.909 26.104C26.909 30.0973 30.1463 33.3346 34.1396 33.3346Z" fill="#1B1B1B"/>
<path d="M37.0967 24.4607C37.0967 26.0943 35.7724 27.4187 34.1387 27.4187C32.5051 27.4187 31.1808 26.0943 31.1808 24.4607C31.1808 22.827 32.5051 21.5027 34.1387 21.5027C35.7724 21.5027 37.0967 22.827 37.0967 24.4607Z" fill="#1B1B1B"/>
<path d="M34.139 24.4607C26.1196 24.4607 23.6765 37.1691 23.4574 43.5232H45.1492C44.8206 37.1691 42.1584 24.4607 34.139 24.4607Z" fill="black" fill-opacity="0.1"/>
<path d="M188.924 24.6385V22.0242H199.312V24.6385H195.717V33.9756H192.519V24.6385H188.924Z" fill="#1B1B1B"/>
<path d="M184.426 22.0242V33.9756H181.181V22.0242H184.426Z" fill="#1B1B1B"/>
<path d="M170.443 33.9756H165.844V22.0242H170.396C171.626 22.0242 172.688 22.2634 173.582 22.742C174.481 23.2166 175.174 23.9013 175.66 24.7961C176.15 25.687 176.395 26.7549 176.395 27.9999C176.395 29.2448 176.152 30.3147 175.666 31.2095C175.179 32.1004 174.491 32.7851 173.6 33.2636C172.709 33.7383 171.657 33.9756 170.443 33.9756ZM169.089 31.2212H170.326C170.917 31.2212 171.421 31.1259 171.838 30.9352C172.258 30.7446 172.577 30.4158 172.795 29.949C173.016 29.4821 173.127 28.8324 173.127 27.9999C173.127 27.1673 173.014 26.5176 172.789 26.0508C172.567 25.5839 172.24 25.2552 171.808 25.0646C171.38 24.8739 170.855 24.7786 170.233 24.7786H169.089V31.2212Z" fill="#1B1B1B"/>
<path d="M152.334 33.9756V22.0242H160.948V24.6385H155.579V26.6927H160.504V29.3071H155.579V31.3612H160.924V33.9756H152.334Z" fill="#1B1B1B"/>
<path d="M138.069 33.9756V22.0242H143.228C144.115 22.0242 144.891 22.1856 145.557 22.5085C146.222 22.8314 146.739 23.2963 147.109 23.9033C147.478 24.5102 147.663 25.2377 147.663 26.0858C147.663 26.9417 147.473 27.6634 147.091 28.2508C146.714 28.8383 146.183 29.2818 145.498 29.5814C144.817 29.8809 144.022 30.0307 143.111 30.0307H140.03V27.5097H142.458C142.839 27.5097 143.164 27.463 143.432 27.3696C143.705 27.2724 143.913 27.1187 144.057 26.9086C144.205 26.6985 144.279 26.4243 144.279 26.0858C144.279 25.7434 144.205 25.4653 144.057 25.2513C143.913 25.0334 143.705 24.8739 143.432 24.7728C143.164 24.6677 142.839 24.6152 142.458 24.6152H141.314V33.9756H138.069ZM145.072 28.4901L148.06 33.9756H144.535L141.617 28.4901H145.072Z" fill="#1B1B1B"/>
<path d="M133.31 26.5061H130.019C129.995 26.2338 129.933 25.9867 129.832 25.765C129.735 25.5432 129.599 25.3526 129.424 25.1931C129.252 25.0297 129.044 24.9052 128.799 24.8196C128.554 24.7301 128.276 24.6854 127.965 24.6854C127.42 24.6854 126.959 24.8177 126.582 25.0822C126.208 25.3468 125.924 25.7261 125.73 26.2202C125.539 26.7143 125.444 27.3076 125.444 28.0001C125.444 28.7315 125.541 29.3442 125.735 29.8383C125.934 30.3285 126.22 30.6981 126.593 30.9471C126.967 31.1922 127.416 31.3147 127.941 31.3147C128.241 31.3147 128.509 31.2777 128.747 31.2038C128.984 31.126 129.19 31.0151 129.365 30.8712C129.54 30.7273 129.682 30.5541 129.791 30.3518C129.904 30.1456 129.98 29.9142 130.019 29.6574L133.31 29.6807C133.271 30.1865 133.129 30.702 132.884 31.2272C132.639 31.7485 132.291 32.2309 131.84 32.6744C131.392 33.114 130.838 33.4681 130.176 33.7365C129.515 34.0049 128.747 34.1392 127.871 34.1392C126.774 34.1392 125.79 33.9038 124.918 33.4331C124.051 32.9623 123.364 32.2698 122.858 31.3556C122.357 30.4413 122.106 29.3228 122.106 28.0001C122.106 26.6695 122.362 25.5491 122.876 24.6387C123.389 23.7245 124.082 23.0339 124.953 22.5671C125.825 22.0963 126.798 21.8609 127.871 21.8609C128.626 21.8609 129.32 21.964 129.955 22.1702C130.589 22.3764 131.145 22.6779 131.624 23.0748C132.102 23.4677 132.487 23.9521 132.779 24.5278C133.071 25.1036 133.248 25.7631 133.31 26.5061Z" fill="#1B1B1B"/>
<path d="M102.085 33.9756V22.0242H110.698V24.6385H105.329V26.6927H110.255V29.3071H105.329V31.3612H110.675V33.9756H102.085Z" fill="#1B1B1B"/>
<path d="M88.5757 33.9756V22.0242H97.1891V24.6385H91.8203V26.6927H96.7456V29.3071H91.8203V31.3612H97.1658V33.9756H88.5757Z" fill="#1B1B1B"/>
<path d="M74.3118 33.9753V22.0239H79.4938C80.4042 22.0239 81.1687 22.1465 81.7872 22.3916C82.4097 22.6366 82.8785 22.9829 83.1936 23.4303C83.5127 23.8777 83.6722 24.4049 83.6722 25.0118C83.6722 25.4514 83.5749 25.8521 83.3804 26.2139C83.1898 26.5757 82.9213 26.8792 82.5751 27.1243C82.2288 27.3655 81.8242 27.5328 81.3612 27.6261V27.7428C81.8748 27.7623 82.3416 27.8926 82.7618 28.1338C83.182 28.3712 83.5165 28.6999 83.7655 29.1201C84.0145 29.5363 84.139 30.0265 84.139 30.5907C84.139 31.2442 83.9678 31.8259 83.6255 32.3355C83.287 32.8452 82.8046 33.2459 82.1782 33.5377C81.5519 33.8294 80.8049 33.9753 79.9373 33.9753H74.3118ZM77.5564 31.3843H79.0737C79.6183 31.3843 80.0268 31.2831 80.2992 31.0808C80.5715 30.8747 80.7076 30.5712 80.7076 30.1705C80.7076 29.8904 80.6435 29.6531 80.5151 29.4585C80.3867 29.264 80.2038 29.1162 79.9665 29.015C79.7331 28.9139 79.451 28.8633 79.1204 28.8633H77.5564V31.3843ZM77.5564 26.8558H78.8869C79.1709 26.8558 79.4219 26.8111 79.6397 26.7216C79.8576 26.6321 80.0268 26.5037 80.1474 26.3365C80.2719 26.1653 80.3342 25.9571 80.3342 25.712C80.3342 25.3424 80.2019 25.0604 79.9373 24.8659C79.6728 24.6675 79.3382 24.5683 78.9336 24.5683H77.5564V26.8558Z" fill="#1B1B1B"/>
</svg>
