<svg width="42" height="42" viewBox="0 0 42 42" fill="none" xmlns="http://www.w3.org/2000/svg">
<path d="M38.2943 19.3531C38.2943 28.9044 30.5515 36.6472 21.0002 36.6472C11.4489 36.6472 3.70605 28.9044 3.70605 19.3531C3.70605 9.8018 11.4489 2.05896 21.0002 2.05896C30.5515 2.05896 38.2943 9.8018 38.2943 19.3531Z" fill="#FFC107"/>
<path fill-rule="evenodd" clip-rule="evenodd" d="M21 42C32.598 42 42 32.598 42 21C42 9.40202 32.598 0 21 0C9.40202 0 0 9.40202 0 21C0 32.598 9.40202 42 21 42ZM21 36.6471C30.5513 36.6471 38.2941 28.9042 38.2941 19.3529C38.2941 9.80166 30.5513 2.05882 21 2.05882C11.4487 2.05882 3.70588 9.80166 3.70588 19.3529C3.70588 28.9042 11.4487 36.6471 21 36.6471Z" fill="#212121"/>
<path fill-rule="evenodd" clip-rule="evenodd" d="M21.0012 30.4709C28.2783 30.4709 34.1776 24.5716 34.1776 17.2944C34.1776 10.0172 28.2783 4.11792 21.0012 4.11792C13.724 4.11792 7.82471 10.0172 7.82471 17.2944C7.82471 24.5716 13.724 30.4709 21.0012 30.4709ZM21.0012 24.2944C26.0042 24.2944 30.06 20.2386 30.06 15.2356C30.06 10.2325 26.0042 6.17674 21.0012 6.17674C15.9981 6.17674 11.9424 10.2325 11.9424 15.2356C11.9424 20.2386 15.9981 24.2944 21.0012 24.2944Z" fill="#212121"/>
</svg>
