<svg width="24" height="24" viewBox="0 0 24 24" fill="none" xmlns="http://www.w3.org/2000/svg">
<rect width="24" height="24" rx="12" fill="#675DA9"/>
<path d="M17.877 6.09227C17.48 5.72734 15.8731 4.55891 12.291 4.54291C12.291 4.54291 8.06861 4.28681 6.01025 6.1755C4.86424 7.32152 4.46089 8.99573 4.41927 11.0765C4.37766 13.1541 4.32324 17.0499 8.07821 18.1063H8.08141L8.07821 19.7165C8.07821 19.7165 8.0558 20.3695 8.48476 20.5007C9.00335 20.6608 9.31066 20.1646 9.80684 19.63C10.0789 19.3355 10.4535 18.9066 10.7384 18.5768C13.3057 18.7913 15.2808 18.2983 15.5049 18.2247C16.0235 18.055 18.959 17.6805 19.436 13.7847C19.9289 9.77682 19.1959 7.23829 17.877 6.09227ZM18.3124 13.503C17.909 16.7554 15.5305 16.9602 15.092 17.1011C14.9063 17.1619 13.1713 17.5941 10.9881 17.45C10.9881 17.45 9.36188 19.4123 8.8561 19.9213C8.77607 20.0014 8.68323 20.0334 8.62241 20.0174C8.53598 19.995 8.51037 19.8925 8.51357 19.7421C8.51357 19.5244 8.52637 17.0627 8.52637 17.0627C8.52317 17.0627 8.52317 17.0627 8.52637 17.0627C5.34761 16.1824 5.53328 12.8659 5.56849 11.1309C5.60371 9.39588 5.93023 7.97136 6.90018 7.01421C8.63842 5.43923 12.2269 5.67292 12.2269 5.67292C15.2552 5.68572 16.7054 6.59806 17.0415 6.90217C18.1587 7.86252 18.7285 10.1514 18.3124 13.503Z" fill="white"/>
<path d="M13.7665 11.1917C13.6609 11.1917 13.5713 11.1085 13.5649 10.9997C13.5297 10.3114 13.2063 9.9753 12.5469 9.94009C12.4349 9.93368 12.3484 9.83765 12.3548 9.72561C12.3612 9.61357 12.4573 9.52713 12.5693 9.53354C13.44 9.58155 13.9266 10.0809 13.9714 10.9773C13.9778 11.0893 13.8914 11.1853 13.7793 11.1885C13.7729 11.1917 13.7697 11.1917 13.7665 11.1917Z" fill="white"/>
<path d="M14.8038 11.5376H14.8006C14.6886 11.5344 14.599 11.4416 14.6022 11.3296C14.6182 10.6381 14.4197 10.0779 13.9971 9.61694C13.5778 9.15597 12.9984 8.90628 12.2333 8.85186C12.1213 8.84225 12.038 8.74622 12.0476 8.63418C12.0572 8.52214 12.1533 8.4389 12.2653 8.44851C13.1296 8.51253 13.8115 8.81344 14.2981 9.34484C14.7878 9.87943 15.0247 10.5485 15.0087 11.3392C15.0055 11.4512 14.9127 11.5376 14.8038 11.5376Z" fill="white"/>
<path d="M15.867 11.9533C15.7549 11.9533 15.6653 11.8636 15.6653 11.7516C15.6557 10.5127 15.3004 9.5684 14.5769 8.86094C13.863 8.16308 12.9571 7.80775 11.8911 7.79815C11.7791 7.79815 11.6895 7.70532 11.6895 7.59328C11.6895 7.48123 11.7823 7.3916 11.8911 7.3916C13.066 7.40121 14.0647 7.79495 14.8554 8.56963C15.6493 9.34432 16.0559 10.4135 16.0687 11.7452C16.0719 11.8604 15.9822 11.9533 15.867 11.9533C15.8702 11.9533 15.8702 11.9533 15.867 11.9533Z" fill="white"/>
<path d="M12.5953 13.6983C12.5953 13.6983 12.8802 13.724 13.0339 13.5351L13.3316 13.1605C13.4756 12.9749 13.8246 12.8564 14.1639 13.0453C14.3528 13.1509 14.6953 13.3622 14.9066 13.5191C15.1339 13.6855 15.5948 14.0697 15.598 14.0729C15.8189 14.2586 15.8701 14.5306 15.7197 14.822C15.7197 14.822 15.7197 14.8252 15.7197 14.8284C15.566 15.1005 15.3579 15.3566 15.0986 15.5934C15.0954 15.5934 15.0954 15.5966 15.0922 15.5966C14.8778 15.7759 14.6665 15.8783 14.4616 15.9008C14.436 15.9072 14.4072 15.9072 14.3688 15.9072C14.2791 15.9072 14.1895 15.8943 14.0999 15.8655L14.0935 15.8559C13.7734 15.7663 13.242 15.5422 12.3584 15.0524C11.7822 14.7355 11.3053 14.4122 10.8987 14.0889C10.6842 13.9192 10.4665 13.7304 10.2425 13.5063C10.2361 13.4999 10.2265 13.4903 10.2201 13.4839C10.2137 13.4775 10.2041 13.4679 10.1976 13.4615C10.1912 13.4551 10.1816 13.4455 10.1752 13.4391C10.1688 13.4326 10.1592 13.423 10.1528 13.4166C9.93195 13.1926 9.73988 12.9749 9.57022 12.7604C9.2469 12.3571 8.92358 11.8769 8.60667 11.3007C8.11689 10.4139 7.8928 9.88255 7.80317 9.56563L7.79357 9.55923C7.76476 9.4696 7.75195 9.37997 7.75195 9.29033C7.75195 9.25192 7.75195 9.22311 7.75836 9.1975C7.78396 8.98942 7.8864 8.78135 8.06247 8.56687C8.06247 8.56367 8.06567 8.56367 8.06567 8.56047C8.30255 8.29797 8.55865 8.0931 8.83075 7.93944C8.83075 7.93944 8.83395 7.93944 8.83715 7.93944C9.12526 7.78898 9.39736 7.8402 9.58622 8.06108C9.58622 8.06108 9.97357 8.52525 10.14 8.75254C10.2969 8.96701 10.5082 9.30634 10.6138 9.49521C10.8027 9.83453 10.6842 10.1835 10.4986 10.3275L10.124 10.6252C9.93515 10.7789 9.96076 11.0638 9.96076 11.0638C9.96076 11.0638 10.5146 13.1702 12.5953 13.6983Z" fill="white"/>
</svg>
